<?xml version="1.0" encoding="UTF-8" standalone="no"?>
<!-- Created with Inkscape (http://www.inkscape.org/) -->

<svg
   width="562.32172"
   height="432.50195"
   viewBox="0 0 148.78095 114.43281"
   version="1.1"
   id="svg5"
   inkscape:version="1.1 (ce6663b3b7, 2021-05-25)"
   sodipodi:docname="43.svg"
   xmlns:inkscape="http://www.inkscape.org/namespaces/inkscape"
   xmlns:sodipodi="http://sodipodi.sourceforge.net/DTD/sodipodi-0.dtd"
   xmlns="http://www.w3.org/2000/svg"
   xmlns:svg="http://www.w3.org/2000/svg">
  <sodipodi:namedview
     id="namedview7"
     pagecolor="#ffffff"
     bordercolor="#666666"
     borderopacity="1.0"
     inkscape:pageshadow="2"
     inkscape:pageopacity="0.0"
     inkscape:pagecheckerboard="0"
     inkscape:document-units="px"
     showgrid="false"
     inkscape:snap-grids="true"
     inkscape:snap-to-guides="true"
     inkscape:snap-intersection-paths="true"
     inkscape:zoom="1.0567318"
     inkscape:cx="310.86412"
     inkscape:cy="352.97509"
     inkscape:window-width="1848"
     inkscape:window-height="1016"
     inkscape:window-x="72"
     inkscape:window-y="27"
     inkscape:window-maximized="1"
     inkscape:current-layer="layer1"
     fit-margin-top="10"
     fit-margin-left="10"
     fit-margin-right="10"
     fit-margin-bottom="10"
     lock-margins="true">
    <inkscape:grid
       type="xygrid"
       id="grid76"
       originx="-129.91538"
       originy="-57.680717" />
  </sodipodi:namedview>
  <defs
     id="defs2">
    <rect
       x="254.9006"
       y="170.63615"
       width="75.0994"
       height="73.373677"
       id="rect2976" />
    <rect
       x="420"
       y="480"
       width="500"
       height="140"
       id="rect57263" />
    <rect
       x="920"
       y="320"
       width="120"
       height="120"
       id="rect7824" />
    <rect
       x="449.07645"
       y="365.61905"
       width="790.19586"
       height="460.43005"
       id="rect15062" />
    <rect
       x="443.43243"
       y="209.91945"
       width="874.1358"
       height="477.6673"
       id="rect3036" />
  </defs>
  <g
     inkscape:label="Layer 1"
     inkscape:groupmode="layer"
     id="layer1"
     transform="translate(-129.91538,-57.680716)">
    <text
       xml:space="preserve"
       transform="matrix(0.26458333,0,0,0.26458333,21.436214,0.13435891)"
       id="text3034"
       style="font-style:normal;font-weight:normal;font-size:40px;line-height:1.25;font-family:sans-serif;white-space:pre;shape-inside:url(#rect3036);fill:#000000;fill-opacity:1;stroke:none"><tspan
         x="443.43164"
         y="245.31055"
         id="tspan19272"><tspan
           style="font-size:24px"
           id="tspan19270">num1:1234
</tspan></tspan><tspan
         x="443.43164"
         y="295.31055"
         id="tspan19276"><tspan
   style="font-size:24px"
   id="tspan19274">num2:567</tspan>
</tspan></text>
    <text
       xml:space="preserve"
       transform="matrix(0.26458333,0,0,0.26458333,19.319551,0.13435891)"
       id="text15060"
       style="font-style:normal;font-weight:normal;font-size:40px;line-height:1.25;font-family:sans-serif;white-space:pre;shape-inside:url(#rect15062);fill:#000000;fill-opacity:1;stroke:none"><tspan
         x="449.07617"
         y="402.91883"
         id="tspan19280"><tspan
           style="font-family:Ubuntu;-inkscape-font-specification:Ubuntu"
           id="tspan19278">                1      2      3      4
</tspan></tspan><tspan
         x="449.07617"
         y="454.82789"
         id="tspan19284"><tspan
           style="font-family:Ubuntu;-inkscape-font-specification:Ubuntu"
           id="tspan19282">                        5      6      7
</tspan></tspan><tspan
         x="449.07617"
         y="506.73694"
         id="tspan19288"><tspan
           style="font-family:Ubuntu;-inkscape-font-specification:Ubuntu"
           id="tspan19286">                8      6      3      8
</tspan></tspan><tspan
         x="449.07617"
         y="558.646"
         id="tspan19292"><tspan
           style="font-family:Ubuntu;-inkscape-font-specification:Ubuntu"
           id="tspan19290">       7      4      0      4
</tspan></tspan><tspan
         x="449.07617"
         y="610.55506"
         id="tspan19296"><tspan
           style="font-family:Ubuntu;-inkscape-font-specification:Ubuntu"
           id="tspan19294">6     1      7      0
</tspan></tspan></text>
    <path
       style="fill:none;stroke:#000000;stroke-width:0.264583px;stroke-linecap:butt;stroke-linejoin:miter;stroke-opacity:1"
       d="M 258.37082,122.24165 H 133.02426"
       id="path56527" />
    <path
       style="font-variation-settings:normal;opacity:1;vector-effect:none;fill:none;fill-opacity:1;stroke:#000000;stroke-width:0.264583;stroke-linecap:butt;stroke-linejoin:miter;stroke-miterlimit:4;stroke-dasharray:1.05833, 1.05833;stroke-dashoffset:0;stroke-opacity:1;-inkscape-stroke:none;stop-color:#000000;stop-opacity:1"
       d="M 238.39455,169.46769 V 85.673271"
       id="path56529" />
    <path
       style="fill:none;stroke:#000000;stroke-width:0.264583;stroke-linecap:butt;stroke-linejoin:miter;stroke-miterlimit:4;stroke-dasharray:1.05833, 1.05833;stroke-dashoffset:0;stroke-opacity:1"
       d="M 217.22788,169.46769 V 85.673271"
       id="path56529-7" />
    <path
       style="fill:none;stroke:#000000;stroke-width:0.264583;stroke-linecap:butt;stroke-linejoin:miter;stroke-miterlimit:4;stroke-dasharray:1.05833, 1.05833;stroke-dashoffset:0;stroke-opacity:1"
       d="M 196.06122,169.46769 V 85.673271"
       id="path56529-5" />
    <path
       style="fill:none;stroke:#000000;stroke-width:0.264583;stroke-linecap:butt;stroke-linejoin:miter;stroke-miterlimit:4;stroke-dasharray:1.05833, 1.05833;stroke-dashoffset:0;stroke-opacity:1"
       d="M 174.89455,169.46769 V 85.673271"
       id="path56529-3" />
    <path
       style="fill:none;stroke:#000000;stroke-width:0.264583;stroke-linecap:butt;stroke-linejoin:miter;stroke-miterlimit:4;stroke-dasharray:1.05833, 1.05833;stroke-dashoffset:0;stroke-opacity:1"
       d="M 153.72788,169.46769 V 85.673271"
       id="path56529-56" />
    <text
       xml:space="preserve"
       transform="scale(0.26458333)"
       id="text7822"
       style="font-style:normal;font-weight:normal;font-size:40px;line-height:1.25;font-family:sans-serif;white-space:pre;shape-inside:url(#rect7824);fill:#000000;fill-opacity:1;stroke:none" />
    <text
       xml:space="preserve"
       style="font-style:normal;font-weight:normal;font-size:6.35px;line-height:1.25;font-family:sans-serif;fill:#000000;fill-opacity:1;stroke:none;stroke-width:0.264583"
       x="259.56122"
       y="95.384346"
       id="text20018"><tspan
         sodipodi:role="line"
         id="tspan20016"
         style="font-size:6.35px;fill:#eb3045;fill-opacity:1;stroke-width:0.264583"
         x="259.56122"
         y="95.384346">col</tspan><tspan
         sodipodi:role="line"
         style="font-size:6.35px;fill:#eb3045;fill-opacity:1;stroke-width:0.264583"
         x="259.56122"
         y="103.32185"
         id="tspan20020" /><tspan
         sodipodi:role="line"
         style="font-size:6.35px;fill:#eb3045;fill-opacity:1;stroke-width:0.264583"
         x="259.56122"
         y="111.25935"
         id="tspan20022">row</tspan></text>
    <path
       style="font-variation-settings:normal;opacity:1;fill:#eb3045;fill-opacity:1;stroke:#000000;stroke-width:0.264583;stroke-linecap:butt;stroke-linejoin:miter;stroke-miterlimit:4;stroke-dasharray:0, 2.91041;stroke-dashoffset:0;stroke-opacity:1;stop-color:#000000;stop-opacity:1"
       id="path46963"
       d="m 246.39238,96.374484 c -0.35045,0.573641 -0.48531,1.242216 -0.61916,1.891768 -0.0246,0.269182 -0.21849,1.042353 -0.0763,1.287611 0.0922,0.159126 0.22797,0.179673 0.38424,0.241287 0.39192,0.07104 0.75912,0.21412 1.09611,0.42392 0,0 0.96728,-0.0973 0.96728,-0.0973 v 0 c -0.33502,-0.219282 -0.70501,-0.38915 -1.10435,-0.44749 -0.0939,-0.02442 -0.29811,-0.05627 -0.37218,-0.147757 -0.0912,-0.112612 -0.0632,-0.342461 -0.0567,-0.456554 0.0173,-0.300853 0.049,-0.479423 0.0913,-0.784704 0.13499,-0.644993 0.29021,-1.305333 0.67708,-1.852584 0,0 -0.98735,-0.05822 -0.98735,-0.05822 z" />
    <path
       style="font-variation-settings:normal;opacity:1;fill:#eb3045;fill-opacity:1;stroke:#000000;stroke-width:0.264583;stroke-linecap:butt;stroke-linejoin:miter;stroke-miterlimit:4;stroke-dasharray:0, 2.91041;stroke-dashoffset:0;stroke-opacity:1;stop-color:#000000;stop-opacity:1"
       id="path46965"
       d="m 247.20654,98.932066 c 0.92309,-0.653987 1.98253,-1.091952 3.02258,-1.523828 0.78136,-0.348822 1.59191,-0.602544 2.42452,-0.792472 0.85587,-0.163478 1.68678,-0.423762 2.5237,-0.660469 0.59423,-0.180218 1.20249,-0.312489 1.81631,-0.404699 0.35,-0.05129 0.70349,-0.0662 1.05671,-0.07087 0.0399,-1.59e-4 0.0798,-5.3e-4 0.11971,-5.3e-4 0.63006,-7.93e-4 -1.37419,-0.0034 -0.53776,0.0013 0,0 0.97401,-0.15377 0.97401,-0.15377 v 0 c -0.50836,-0.0021 -1.01677,-0.0058 -1.52508,0.0013 -0.34858,0.0091 -0.69708,0.03034 -1.04168,0.08656 -0.60711,0.100264 -1.20823,0.236677 -1.7962,0.419158 -0.83411,0.240681 -1.66574,0.491802 -2.51951,0.65618 -0.33437,0.07832 -0.50084,0.11245 -0.82947,0.208534 -0.53977,0.157813 -1.05242,0.390734 -1.57193,0.602914 -1.05922,0.454075 -2.13168,0.910878 -3.09811,1.544399 0,0 0.9822,0.08614 0.9822,0.08614 z" />
    <path
       style="font-variation-settings:normal;opacity:1;fill:#eb3045;fill-opacity:1;stroke:#000000;stroke-width:0.264583;stroke-linecap:butt;stroke-linejoin:miter;stroke-miterlimit:4;stroke-dasharray:0, 2.91041;stroke-dashoffset:0;stroke-opacity:1;stop-color:#000000;stop-opacity:1"
       id="path46967"
       d="m 245.56383,111.04736 c -0.0242,0.32807 -0.10576,0.65095 -0.1244,0.97947 -0.004,0.0783 -0.0126,0.15827 0.002,0.23523 0.0139,0.0711 0.0553,0.13397 0.0829,0.20096 0.0565,0.0524 0.10514,0.11471 0.16943,0.15714 0.35592,0.23483 0.90198,0.24104 1.31437,0.28096 0.24111,0.0253 0.47875,0.0662 0.71095,0.13551 0,0 0.97104,-0.12266 0.97104,-0.12266 v 0 c -0.23635,-0.083 -0.4798,-0.12618 -0.72874,-0.1545 -0.41568,-0.0395 -0.92243,-0.035 -1.30225,-0.22541 -0.0595,-0.0298 -0.10956,-0.0757 -0.16435,-0.1135 -0.0287,-0.0536 -0.0716,-0.10179 -0.0862,-0.16084 -0.0178,-0.072 -0.0116,-0.14822 -0.009,-0.22232 0.0133,-0.32987 0.0996,-0.65295 0.15126,-0.97754 0,0 -0.98789,-0.0125 -0.98789,-0.0125 z" />
    <path
       style="font-variation-settings:normal;opacity:1;fill:#eb3045;fill-opacity:1;stroke:#000000;stroke-width:0.264583;stroke-linecap:butt;stroke-linejoin:miter;stroke-miterlimit:4;stroke-dasharray:0, 2.91041;stroke-dashoffset:0;stroke-opacity:1;stop-color:#000000;stop-opacity:1"
       id="path46971"
       d="m 246.6866,112.39286 c 0.70579,-0.60517 1.50767,-1.07969 2.31494,-1.53427 0.96794,-0.51839 1.96935,-0.97781 3.01676,-1.31174 0.69273,-0.22084 0.85495,-0.2413 1.5746,-0.40526 1.52542,-0.31486 3.08464,-0.39092 4.63718,-0.44047 0.16015,-0.003 0.3203,-0.007 0.48045,-0.01 0,0 -0.92122,-0.14357 -0.92122,-0.14357 v 0 c -0.15445,0.005 -0.30891,0.009 -0.46336,0.0135 -1.54179,0.0608 -3.09056,0.14174 -4.60424,0.46244 -0.27539,0.0635 -0.55279,0.11887 -0.82619,0.19047 -1.32175,0.34613 -2.57166,0.91125 -3.77493,1.55047 -0.83821,0.46128 -1.66853,0.94326 -2.41667,1.54384 0,0 0.98268,0.0844 0.98268,0.0844 z" />
    <text
       xml:space="preserve"
       transform="matrix(0.26458333,0,0,0.26458333,21.436214,1.7218589)"
       id="text57261"
       style="font-style:normal;font-weight:normal;font-size:18.6667px;line-height:1.25;font-family:sans-serif;white-space:pre;shape-inside:url(#rect57263);fill:#000000;fill-opacity:1;stroke:none"><tspan
         x="420"
         y="497.40655"
         id="tspan19300"><tspan
           style="font-family:Ubuntu;-inkscape-font-specification:Ubuntu;fill:#fa0000"
           id="tspan19298">                                              1-4            1-3            1-2          1-1
</tspan></tspan><tspan
         x="420"
         y="521.63083"
         id="tspan19304"><tspan
           style="font-family:Ubuntu;-inkscape-font-specification:Ubuntu;fill:#fa0000"
           id="tspan19302">
</tspan></tspan><tspan
         x="420"
         y="545.8551"
         id="tspan19308"><tspan
           style="font-family:Ubuntu;-inkscape-font-specification:Ubuntu;fill:#fa0000"
           id="tspan19306">                           2-4             2-3            2-2            2-1
</tspan></tspan><tspan
         x="420"
         y="570.0794"
         id="tspan19312"><tspan
           style="font-family:Ubuntu;-inkscape-font-specification:Ubuntu;fill:#fa0000"
           id="tspan19310">
</tspan></tspan><tspan
         x="420"
         y="594.30365"
         id="tspan19316"><tspan
           style="font-family:Ubuntu;-inkscape-font-specification:Ubuntu;fill:#fa0000"
           id="tspan19314">          3-4           3-3             3-2            3-1</tspan></tspan></text>
    <text
       xml:space="preserve"
       style="font-style:normal;font-weight:normal;font-size:4.93889px;line-height:1.25;font-family:sans-serif;fill:#000000;fill-opacity:1;stroke:none;stroke-width:0.264583"
       x="270.14456"
       y="132.42603"
       id="text92279"><tspan
         sodipodi:role="line"
         id="tspan92277"
         style="font-size:4.93889px;fill:#fa0000;fill-opacity:1;stroke-width:0.264583"
         x="270.14456"
         y="132.42603">r-c</tspan></text>
    <text
       xml:space="preserve"
       transform="matrix(0.26458333,0,0,0.26458333,129.91538,57.680716)"
       id="text2974"
       style="fill:black;fill-opacity:1;line-height:1.25;stroke:none;font-family:sans-serif;font-style:normal;font-weight:normal;font-size:40px;white-space:pre;shape-inside:url(#rect2976)" />
  </g>
</svg>
